<?xml version="1.0" standalone="no"?>
<!DOCTYPE svg PUBLIC "-//W3C//DTD SVG 20010904//EN"
 "http://www.w3.org/TR/2001/REC-SVG-20010904/DTD/svg10.dtd">
<svg version="1.0" xmlns="http://www.w3.org/2000/svg"
 width="460.000000pt" height="460.000000pt" viewBox="0 0 460.000000 460.000000"
 preserveAspectRatio="xMidYMid meet">
<metadata>
Created by potrace 1.16, written by Peter Selinger 2001-2019
</metadata>
<g transform="translate(0.000000,460.000000) scale(0.100000,-0.100000)"
fill="#000000" stroke="none">
<path d="M4260 4586 c0 -7 -9 -25 -21 -40 -11 -14 -17 -26 -13 -26 4 0 -7 -16
-26 -35 -26 -27 -31 -38 -22 -47 16 -16 15 -28 -3 -28 -8 0 -15 -4 -15 -10 0
-14 11 -13 53 5 19 8 36 12 39 10 2 -3 37 -11 77 -18 71 -14 73 -14 104 9 50
37 79 47 125 46 l42 0 0 50 0 50 -57 -4 c-59 -5 -175 21 -188 42 -10 16 -95
12 -95 -4z"/>
<path d="M2188 4345 c72 -79 70 -85 -25 -64 -47 10 -491 38 -498 31 -4 -4 35
-74 46 -82 13 -10 40 -72 34 -78 -3 -3 -16 -7 -28 -8 -12 -2 -59 -9 -105 -15
l-83 -12 38 -39 37 -38 -27 0 c-15 0 -27 3 -27 8 0 4 -34 7 -75 8 -83 1 -83 1
-50 -66 7 -14 15 -38 19 -54 l7 -29 -35 21 c-20 12 -36 18 -36 14 0 -4 11 -52
25 -107 32 -130 32 -137 -7 -95 l-31 35 6 -32 c4 -18 2 -33 -3 -33 -5 0 -11
15 -13 33 -3 17 -3 -22 -1 -88 3 -93 1 -114 -7 -92 -21 53 -29 26 -29 -100 -1
-114 -2 -126 -15 -109 -11 15 -15 16 -19 5 -4 -12 -16 -390 -17 -532 0 -48 -1
-49 -44 -68 -24 -11 -60 -38 -80 -62 l-37 -42 5 -105 c8 -162 24 -190 110
-190 l45 0 7 -77 c9 -113 15 -122 10 -17 l-4 91 109 12 c60 6 128 18 151 26
23 9 44 14 46 12 7 -7 -56 -150 -75 -171 -20 -22 -52 -79 -52 -93 0 -10 41
-54 95 -103 30 -27 26 -20 -18 32 -31 36 -57 71 -57 77 0 7 26 55 58 109 88
146 132 308 118 435 l-6 58 38 16 c41 17 151 14 208 -7 29 -10 32 -16 39 -68
11 -88 34 -135 90 -181 61 -51 93 -61 215 -67 73 -4 133 0 260 20 206 32 227
38 276 80 l39 34 3 106 c2 58 7 106 11 106 3 0 15 -6 26 -13 11 -8 47 -29 80
-47 33 -18 97 -53 143 -79 45 -25 97 -54 115 -64 17 -10 31 -22 29 -28 -1 -5
3 -9 10 -8 45 6 46 -8 22 -163 -13 -78 -29 -131 -66 -218 -44 -99 -119 -235
-139 -250 -3 -3 -14 -20 -23 -38 -10 -19 -21 -30 -28 -26 -6 4 -8 3 -5 -3 8
-13 -51 -96 -63 -88 -5 3 -12 0 -16 -6 -4 -8 -3 -9 4 -5 7 4 12 3 12 -3 0 -20
-198 -206 -285 -266 -109 -76 -276 -157 -304 -147 -8 2 -11 0 -8 -5 4 -6 -8
-14 -26 -18 -17 -4 -34 -9 -37 -10 -8 -3 -44 -16 -72 -27 -15 -5 -33 -7 -40
-2 -7 4 -10 3 -5 -1 4 -5 -23 -17 -60 -26 -51 -13 -125 -19 -291 -24 -216 -5
-303 -15 -329 -36 -9 -8 -20 1 -43 38 -40 62 -46 87 -66 273 -24 229 -42 360
-43 320 -1 -45 36 -414 49 -483 15 -78 41 -133 72 -152 15 -9 85 -33 155 -54
192 -58 223 -69 279 -103 74 -44 93 -87 101 -225 l6 -109 -89 -14 c-85 -12
-193 -37 -259 -58 -16 -6 -64 -20 -105 -32 -88 -27 -219 -89 -262 -125 -16
-14 -34 -25 -39 -25 -5 0 -9 -88 -9 -208 0 -148 -3 -211 -12 -220 -9 -9 -7
-12 10 -12 12 0 22 4 22 9 0 10 74 47 114 57 44 11 31 -21 -16 -42 l-43 -18
64 -4 c62 -3 73 1 84 31 1 5 16 9 32 10 17 1 33 6 37 11 4 6 22 5 47 -3 37
-10 40 -14 31 -31 -10 -18 -7 -20 27 -20 21 0 54 4 73 9 19 6 50 12 68 15 28
4 31 2 21 -10 -14 -17 2 -19 19 -2 10 10 15 10 22 -2 5 -8 11 -12 13 -10 3 3
30 70 60 150 68 178 87 224 96 230 8 6 8 7 21 130 12 125 -3 356 -30 436 -9
29 -14 51 -9 49 4 -3 17 -34 29 -70 12 -36 26 -65 32 -65 6 0 7 8 3 18 -4 9
-11 31 -15 48 -4 18 -10 37 -14 43 -9 14 5 14 40 1 15 -6 29 -9 31 -6 5 5 -76
59 -92 61 -55 7 -75 19 -75 43 0 34 80 113 108 106 10 -3 44 6 76 20 69 31 81
33 43 7 -49 -32 -11 -33 41 -1 65 40 75 38 21 -4 -24 -19 -45 -33 -48 -31 -6
6 -31 -15 -31 -26 0 -13 21 -11 39 4 9 8 34 24 56 36 23 13 30 15 15 4 -13
-10 -32 -26 -41 -35 -10 -9 -20 -13 -24 -10 -3 4 -3 -2 1 -11 6 -17 7 -17 28
0 11 9 -12 -14 -52 -51 -40 -38 -70 -71 -67 -74 3 -3 16 5 30 18 14 13 25 18
25 12 0 -6 -4 -14 -10 -17 -5 -3 -15 -15 -21 -27 -8 -15 -8 -19 0 -14 6 4 11
2 11 -4 0 -6 6 -8 13 -4 7 4 9 3 4 -2 -5 -5 -14 -9 -20 -9 -7 -1 -11 -6 -9
-13 1 -7 -5 -15 -13 -18 -14 -6 -22 -34 -9 -34 3 0 28 25 56 55 27 30 55 52
61 48 5 -3 7 -1 4 4 -8 13 43 69 57 65 6 -2 8 0 3 4 -10 10 33 55 46 47 6 -3
7 -2 4 4 -7 11 28 53 45 53 6 0 8 3 5 7 -4 3 2 12 13 20 11 8 20 23 20 34 0
10 5 19 10 19 6 0 10 5 10 11 0 6 -8 8 -17 5 -10 -4 -4 5 12 18 17 14 26 25
21 26 -14 0 35 34 79 55 110 51 224 134 359 262 75 72 100 105 192 250 27 44
43 61 54 57 8 -4 34 -9 58 -11 l43 -6 -8 -66 c-4 -36 -7 -256 -7 -487 l1 -421
-121 -13 c-104 -10 -161 -20 -330 -57 -22 -5 -27 -3 -21 7 5 9 4 11 -4 6 -6
-4 -9 -11 -6 -15 2 -5 -16 -11 -40 -14 -25 -4 -87 -20 -137 -36 -51 -16 -103
-32 -114 -35 -17 -5 -22 -17 -27 -64 -9 -83 -54 -391 -92 -632 -8 -46 -12 -86
-9 -89 13 -13 23 29 44 186 13 95 27 173 30 173 3 0 34 21 69 46 34 25 64 44
66 42 1 -2 5 -37 9 -78 11 -126 16 -161 38 -267 20 -96 37 -126 51 -90 4 9 6
9 6 0 1 -7 6 -13 11 -13 12 0 -8 39 -29 56 -8 6 -11 18 -8 28 4 10 1 24 -7 32
-21 20 -35 97 -47 260 -8 107 -8 153 1 179 6 19 15 33 19 31 10 -7 6 98 -4
114 -5 8 -4 11 2 7 5 -3 9 4 7 16 -1 12 -3 26 -3 31 -1 5 -7 4 -14 -2 -8 -7
-18 -7 -27 -2 -23 15 -66 12 -80 -5 -8 -9 -9 -15 -2 -15 6 0 14 5 17 10 8 13
25 13 25 0 0 -6 -11 -15 -25 -22 -13 -6 -22 -14 -20 -19 3 -4 1 -10 -3 -13 -5
-3 -9 15 -10 39 0 48 1 49 73 60 22 4 68 15 103 26 159 47 475 99 606 99 65 0
128 -11 166 -28 13 -6 -202 -20 -324 -22 -27 0 -37 -4 -33 -13 3 -7 -4 -24
-14 -38 -17 -21 -19 -22 -19 -5 0 11 -3 17 -6 13 -7 -7 5 -47 14 -46 22 3 18
-5 -15 -36 -58 -55 -31 -56 237 -10 52 9 118 18 146 20 l52 3 -58 -56 c-31
-31 -64 -69 -74 -83 -15 -23 -23 -26 -77 -27 -33 0 -99 -11 -146 -23 -80 -20
-101 -27 -143 -50 -8 -5 -41 -22 -73 -39 -71 -38 -167 -99 -167 -106 0 -4 12
2 28 12 103 68 243 131 263 119 8 -5 10 -4 5 3 -7 11 7 16 41 15 7 -1 11 3 8
7 -7 11 40 21 61 13 11 -4 15 -3 11 4 -5 7 17 16 61 23 94 17 106 11 62 -30
-19 -19 -28 -30 -20 -25 13 8 13 7 1 -8 -11 -14 -17 -15 -30 -5 -14 11 -14 11
-3 -3 10 -13 8 -21 -9 -43 -16 -20 -29 -26 -59 -26 -31 0 -42 -6 -62 -33 -14
-17 -28 -43 -31 -57 -3 -14 -13 -34 -22 -45 -14 -18 -14 -16 0 13 9 19 14 40
12 47 -3 7 0 18 6 24 7 7 -30 -8 -80 -34 -51 -25 -93 -49 -93 -52 0 -3 7 -2
16 1 39 15 96 -26 78 -56 -5 -8 -10 -6 -14 7 -3 10 -6 -12 -6 -49 l0 -66 18
57 c22 71 22 90 3 101 -13 7 -11 10 11 21 15 6 29 9 33 5 3 -4 0 -9 -6 -11 -8
-3 -11 -14 -7 -28 3 -12 -3 -44 -14 -71 -11 -27 -27 -76 -37 -109 -10 -33 -20
-66 -22 -72 -4 -10 173 -13 866 -13 l871 0 0 380 c0 373 0 380 -20 380 -19 0
-20 -7 -20 -120 0 -73 -4 -120 -10 -120 -5 0 -10 -20 -10 -44 0 -53 -25 -116
-45 -116 -9 0 -15 -9 -15 -22 -1 -26 -22 -58 -39 -58 -6 0 -11 -17 -11 -40 0
-29 -4 -40 -15 -40 -11 0 -15 -11 -15 -39 0 -34 -3 -39 -32 -49 l-33 -12 35 4
c19 3 29 2 22 -1 -6 -2 -9 -10 -5 -16 17 -27 12 -36 -13 -25 -13 6 -21 15 -17
21 3 5 -3 6 -15 3 -11 -4 -23 -2 -27 4 -3 5 -12 10 -20 10 -8 0 -47 16 -88 35
-41 19 -80 35 -87 35 -8 0 -23 8 -34 19 -20 18 -175 81 -200 81 -15 0 -34 23
-91 111 -26 41 -94 144 -150 229 -56 85 -109 167 -118 183 -10 15 -26 27 -36
27 -34 0 -92 30 -102 54 -13 27 -43 43 -98 52 -36 6 -40 10 -45 43 -4 20 -9
242 -12 494 l-6 457 29 0 c106 0 238 96 297 215 73 149 90 281 48 362 -27 51
-47 63 -106 63 l-46 0 0 468 c0 290 -4 490 -11 526 -25 138 -218 414 -241 346
-2 -6 -35 21 -74 59 -104 101 -267 218 -396 284 -167 85 -319 129 -528 152
l-64 7 52 -57z m447 -661 c73 -16 233 -88 273 -123 13 -11 21 -25 17 -31 -3
-5 0 -7 7 -5 7 3 33 -15 58 -40 24 -25 41 -45 37 -45 -4 0 1 -8 11 -19 55 -59
53 -53 50 -254 -2 -117 1 -190 7 -195 6 -4 10 -13 10 -20 0 -8 23 -23 50 -35
81 -35 94 -48 105 -107 5 -29 10 -75 10 -102 l0 -49 -44 31 c-25 16 -47 30
-50 30 -3 0 -100 63 -215 140 -200 134 -211 140 -260 140 -48 0 -187 -17 -334
-41 -38 -6 -90 -13 -115 -15 l-47 -4 37 22 c20 13 74 45 120 73 l83 50 130 5
130 6 -130 4 -130 5 -100 -62 c-186 -115 -197 -121 -269 -132 -46 -7 -76 -17
-92 -32 -12 -11 -28 -18 -34 -14 -7 4 -10 0 -8 -11 4 -22 -9 -22 -67 0 -22 8
-54 15 -71 16 -49 0 -124 -26 -154 -55 l-27 -26 3 28 c4 26 4 27 -7 6 l-11
-22 -82 31 c-123 46 -190 69 -184 63 3 -3 35 -20 71 -39 l66 -33 -77 -16 c-42
-9 -87 -19 -99 -23 -22 -6 -23 -4 -23 55 0 145 107 361 246 497 170 167 491
307 804 353 41 6 86 13 100 15 37 5 125 -3 205 -20z m98 -739 c25 -18 35 -67
43 -201 8 -125 -6 -174 -54 -193 -52 -21 -209 -49 -337 -61 -112 -11 -141 -10
-214 3 -55 11 -94 25 -116 41 -46 35 -77 107 -83 191 -4 67 -3 72 26 102 26
28 41 34 118 48 49 8 141 24 204 35 90 16 271 39 385 49 6 0 18 -6 28 -14z
m-1176 -176 c15 -5 31 -16 35 -22 4 -7 8 -51 8 -99 0 -96 -24 -180 -60 -213
-28 -25 -128 -45 -232 -45 -101 0 -133 11 -148 53 -15 43 -12 148 5 177 8 14
14 21 14 15 1 -5 -3 -16 -8 -24 -7 -11 0 -19 25 -33 46 -25 54 -23 54 12 0 25
-6 32 -45 49 -54 24 -52 40 10 76 87 52 272 81 342 54z m2006 -243 c35 -32 41
-61 34 -164 -5 -88 -35 -190 -52 -175 -4 4 -5 3 -1 -4 9 -17 -32 -95 -46 -87
-7 5 -8 3 -3 -5 4 -7 -2 -22 -16 -37 -20 -22 -24 -23 -40 -8 -16 14 -15 18 17
66 19 27 34 54 34 60 0 5 5 6 11 2 7 -4 10 -1 7 7 -3 8 1 29 8 48 8 19 12 36
10 38 -2 2 -28 7 -57 10 -52 5 -79 16 -67 28 3 3 33 7 67 8 33 1 61 6 61 10 0
5 4 5 10 2 6 -4 7 1 3 11 -4 10 -2 15 3 11 5 -3 11 6 12 19 2 30 -15 23 -28
-12 -9 -22 -15 -24 -70 -24 -56 0 -61 2 -70 25 -8 21 -5 33 15 65 l25 40 73 0
c50 0 67 3 57 10 -8 5 -40 10 -71 10 -53 0 -59 -2 -93 -40 -20 -22 -36 -44
-36 -49 0 -4 9 -37 20 -71 21 -66 23 -77 15 -68 -3 3 -33 -22 -66 -54 -34 -33
-59 -61 -57 -63 2 -2 16 7 31 21 15 14 27 22 27 19 0 -3 12 6 28 20 15 14 33
23 40 20 7 -3 10 -1 7 4 -3 5 -1 12 4 16 6 3 8 11 5 18 -3 9 7 12 36 9 31 -3
40 -8 40 -22 0 -26 -11 -51 -20 -45 -4 2 -5 -6 -3 -18 3 -15 -5 -32 -21 -50
-14 -15 -22 -27 -19 -27 3 0 0 -7 -7 -15 -7 -8 -17 -12 -23 -8 -5 3 -7 1 -3
-5 8 -13 -54 -52 -83 -52 -11 0 -21 -4 -21 -10 0 -15 16 -12 71 11 27 12 49
26 49 32 0 6 10 2 22 -11 22 -21 22 -22 3 -37 -11 -8 -26 -12 -32 -10 -7 2
-12 -1 -10 -8 1 -7 -6 -11 -15 -11 -10 1 -18 -2 -18 -6 0 -19 -76 -32 -156
-28 -46 2 -86 7 -90 10 -6 7 45 121 58 126 4 2 5 8 2 13 -3 6 -2 15 4 22 19
25 102 236 102 260 0 64 38 108 132 152 69 32 117 32 151 1z m-1573 -1881 c0
-11 -12 -14 -47 -14 -128 2 -343 -55 -501 -133 -13 -7 -20 -18 -17 -26 4 -10
0 -12 -10 -8 -11 4 -14 2 -9 -6 5 -8 2 -9 -9 -5 -9 3 -19 2 -22 -3 -4 -6 8 -9
28 -8 19 2 33 6 30 11 -7 12 6 8 55 -18 26 -14 39 -25 29 -25 -10 0 -27 5 -39
11 -11 6 -22 8 -25 6 -3 -3 8 -12 24 -20 27 -15 36 -13 148 25 104 35 135 41
233 46 105 4 112 3 112 -14 0 -48 -12 -62 -58 -75 -26 -7 -53 -13 -59 -12 -7
0 -13 -3 -13 -8 0 -5 -4 -9 -10 -9 -17 0 -123 -50 -118 -56 3 -3 39 6 79 20
41 14 93 29 115 34 l42 9 -9 -26 c-35 -111 -27 -103 -144 -143 -59 -21 -113
-35 -119 -31 -6 3 -8 3 -4 -1 7 -9 -23 -45 -33 -39 -4 1 -10 -9 -13 -23 -7
-24 -8 -25 -25 -10 -10 9 -21 16 -26 16 -5 0 1 -9 13 -20 26 -24 29 -45 6 -36
-9 3 -23 6 -32 7 -14 0 -13 2 3 9 18 8 18 9 2 9 -10 1 -16 5 -13 10 3 4 -7 6
-22 3 -24 -5 -24 -6 -7 -13 16 -5 10 -9 -24 -15 -24 -4 -53 -16 -64 -27 -15
-15 -19 -16 -14 -4 3 8 2 17 -2 19 -12 4 -22 61 -13 73 14 20 87 73 139 101
83 44 55 38 -50 -11 -53 -25 -101 -45 -106 -45 -10 0 -41 72 -41 96 0 9 11 25
25 36 14 11 22 25 18 31 -4 6 0 8 10 4 11 -4 14 -2 10 9 -3 7 -12 14 -20 14
-8 0 -11 -4 -8 -10 4 -6 -3 -9 -16 -7 -12 1 -24 -3 -26 -10 -3 -8 5 -10 24 -7
18 3 25 2 18 -5 -5 -5 -19 -11 -30 -13 -23 -4 -32 23 -13 44 19 20 20 38 3 32
-8 -4 -13 -10 -10 -14 3 -5 1 -11 -4 -14 -10 -7 -27 31 -23 51 3 16 -40 4 -56
-16 -12 -14 -13 -12 -10 14 3 26 12 34 74 65 39 19 84 40 100 47 52 22 89 36
99 39 24 6 81 27 97 35 42 21 267 67 336 68 31 1 42 -3 42 -14z"/>
<path d="M4565 3741 c-56 -50 -61 -69 -43 -178 9 -61 12 -111 7 -137 -5 -23
-8 -61 -7 -86 l1 -45 7 55 c6 50 7 51 9 15 2 -60 13 -70 39 -40 22 25 22 31
20 234 l-3 209 -30 -27z"/>
<path d="M4340 2005 c-10 -18 -16 -22 -21 -13 -10 15 -14 10 -23 -24 -5 -22
-2 -30 16 -39 13 -7 26 -16 29 -22 4 -5 12 -6 19 -2 9 6 9 9 -1 16 -9 6 -10 9
-2 9 6 0 19 3 29 7 12 4 15 3 10 -5 -4 -7 -1 -12 10 -12 14 0 14 2 3 16 -9 12
-24 15 -51 11 -30 -4 -35 -3 -25 7 7 8 42 14 82 15 45 1 65 -2 56 -8 -11 -7
-10 -10 5 -14 10 -3 1 -4 -21 -1 l-40 5 45 -23 c36 -19 46 -29 48 -53 5 -61 1
-108 -13 -135 -14 -27 -13 -28 13 -39 16 -7 40 -23 55 -36 14 -14 29 -25 32
-25 3 0 5 61 5 135 0 133 0 135 -22 136 -22 1 -22 1 2 9 l25 8 -25 1 c-15 1
-31 6 -38 13 -17 17 -27 1 -11 -19 11 -15 10 -15 -9 1 -12 11 -22 25 -22 31 0
17 -23 25 -68 26 -28 0 -32 2 -18 8 19 7 19 8 -2 13 -12 4 -22 2 -22 -3 0 -5
-7 -9 -15 -9 -8 0 -15 5 -15 10 0 6 5 10 11 10 5 0 7 5 4 10 -10 16 -21 12
-35 -15z"/>
<path d="M4576 1285 c-14 -11 -17 -23 -14 -62 6 -54 -8 -137 -27 -168 -13 -21
-14 -59 -2 -71 4 -4 7 -36 7 -71 0 -66 13 -93 44 -93 14 0 16 28 16 240 0 132
-1 240 -2 240 -2 0 -11 -7 -22 -15z"/>
</g>
</svg>
